<svg xmlns="http://www.w3.org/2000/svg" version="1.1" xmlns:xlink="http://www.w3.org/1999/xlink" xmlns:svgjs="http://svgjs.dev/svgjs" width="1500" height="327" viewBox="0 0 1500 327"><g transform="matrix(1,0,0,1,0.7350902685781193,0.3402979999999616)"><svg viewBox="0 0 344 75" data-background-color="#1e1e1e" preserveAspectRatio="xMidYMid meet" height="327" width="1500" xmlns="http://www.w3.org/2000/svg" xmlns:xlink="http://www.w3.org/1999/xlink"><g id="tight-bounds" transform="matrix(1,0,0,1,-0.1685807015939247,-0.0780499999999904)"><svg viewBox="0 0 344.33716140318785 75.1561" height="75.1561" width="344.33716140318785"><g><svg viewBox="0 0 344.33716140318785 75.1561" height="75.1561" width="344.33716140318785"><g><svg viewBox="0 0 344.33716140318785 75.1561" height="75.1561" width="344.33716140318785"><g id="textblocktransform"><svg viewBox="0 0 344.33716140318785 75.1561" height="75.1561" width="344.33716140318785" id="textblock"><g><svg viewBox="0 0 344.33716140318785 75.1561" height="75.1561" width="344.33716140318785"><g><svg><g></g><g></g></svg></g><g><svg><g></g><g><svg></svg></g></svg></g><g id="text-0"><svg viewBox="0 0 344.33716140318785 75.1561" height="75.1561" width="344.33716140318785"><g><svg xmlns="http://www.w3.org/2000/svg" xmlns:xlink="http://www.w3.org/1999/xlink" version="1.1" x="0" y="0" viewBox="4.999802624769675 4.999500000000001 90.00069737523032 90.00074359558756" enable-background="new 0 0 100 100" xml:space="preserve" height="75.1561" width="75.15606140318788" class="icon-dxe-0" data-fill-palette-color="accent" id="dxe-0"></svg></g><g transform="matrix(1,0,0,1,92.89996140318787,0)"><svg width="251.4372" viewBox="-0.75 -34.6 155.39 46.45" height="75.1561" data-palette-color="url(#96e39dc6-89fd-42bd-b920-12904be809d4)"></svg></g></svg></g></svg></g></svg></g></svg></g></svg></g><defs></defs><mask id="25341065-4cdb-442a-8d5a-1ab120ac2b29"><g id="SvgjsG2521"><svg viewBox="0 0 344.33716140318785 75.1561" height="75.1561" width="344.33716140318785"><g><svg viewBox="0 0 344.33716140318785 75.1561" height="75.1561" width="344.33716140318785"><g><svg viewBox="0 0 344.33716140318785 75.1561" height="75.1561" width="344.33716140318785"><g id="SvgjsG2520"><svg viewBox="0 0 344.33716140318785 75.1561" height="75.1561" width="344.33716140318785" id="SvgjsSvg2519"><g><svg viewBox="0 0 344.33716140318785 75.1561" height="75.1561" width="344.33716140318785"><g><svg><g></g><g></g></svg></g><g><svg><g></g><g><svg></svg></g></svg></g><g id="SvgjsG2518"><svg viewBox="0 0 344.33716140318785 75.1561" height="75.1561" width="344.33716140318785"><g><svg xmlns="http://www.w3.org/2000/svg" xmlns:xlink="http://www.w3.org/1999/xlink" version="1.1" x="0" y="0" viewBox="4.999802624769675 4.999500000000001 90.00069737523032 90.00074359558756" enable-background="new 0 0 100 100" xml:space="preserve" height="75.1561" width="75.15606140318788" class="icon-dxe-0" data-fill-palette-color="accent" id="SvgjsSvg2517"><g fill="black"><path d="M5.316 94.538L9.122 68.845C1.46 52.219 4.479 31.881 18.18 18.18 35.754 0.606 64.246 0.606 81.82 18.18S99.394 64.246 81.82 81.82C67.936 95.704 47.237 98.619 30.492 90.565zM23.799 49.684A5.774 5.774 0 1 0 35.347 49.684 5.774 5.774 0 0 0 23.799 49.684M44.361 49.684A5.774 5.774 0 1 0 55.909 49.684 5.774 5.774 0 0 0 44.36 49.684M64.923 49.684A5.774 5.774 0 1 0 76.471 49.684 5.774 5.774 0 0 0 64.923 49.684" fill="black"></path></g></svg></g><g transform="matrix(1,0,0,1,92.89996140318787,0)"><svg width="251.4372" viewBox="-0.75 -34.6 155.39 46.45" height="75.1561" data-palette-color="url(#96e39dc6-89fd-42bd-b920-12904be809d4)"><path d="M16.6 0.5L16.45 0.15 16.65-1.8Q19.2-2 20.15-2.4 21.1-2.8 21.1-3.7L21.1-3.7Q21.1-4.7 20.65-6.1L20.65-6.1 19-11.55Q17.8-11.6 13.8-11.6L13.8-11.6Q11.4-11.6 8.35-11.2L8.35-11.2 6.5-6Q6.05-4.65 6.05-4.05L6.05-4.05Q6.05-2.95 6.75-2.48 7.45-2 9.05-2L9.05-2 11.9-2 12-1.8 11.7 0.35Q11.1 0.3 8.95 0.15 6.8 0 4.75 0L4.75 0Q2.9 0 1.33 0.05-0.25 0.1-0.75 0.15L-0.75 0.15-0.35-2.2Q1.05-2.35 1.9-3.18 2.75-4 3.55-6.05L3.55-6.05 13.3-31.6 16.45-32.45 16.85-32.45Q17.15-31.25 18.38-26.9 19.6-22.55 21.38-16.6 23.15-10.65 24.8-5.65L24.8-5.65Q25.4-3.8 26.4-3.05 27.4-2.3 29.6-2.1L29.6-2.1 29.7-1.9 29.35 0.15Q28.75 0.15 27.18 0.08 25.6 0 24.05 0L24.05 0Q21.65 0 19.43 0.2 17.2 0.4 16.6 0.5L16.6 0.5ZM9.25-13.65L13.65-13.65Q15.45-13.65 18.3-13.9L18.3-13.9 14.35-27 14-27 9.25-13.65ZM30.45 11.85L30.7 9.9Q31.8 9.75 32.32 9.45 32.85 9.15 33.05 8.45 33.25 7.75 33.25 6.3L33.25 6.3Q33.25 4.2 33.3 2.7L33.3 2.7 33.35-2 33.35-16.9Q33.35-18.6 32.8-19.28 32.25-19.95 30.9-19.95L30.9-19.95 30.35-19.95 30.2-20.15 30.35-21.8Q32.5-22.15 34.62-22.63 36.75-23.1 37.35-23.25L37.35-23.25 37.65-22.85Q37.6-22.6 37.42-21.78 37.25-20.95 37.15-20.15L37.15-20.15 37.35-19.8Q42.05-23.05 43.15-23.05L43.15-23.05Q46-23.05 48.2-21.73 50.4-20.4 51.6-18 52.8-15.6 52.8-12.5L52.8-12.5Q52.8-8.95 51.1-5.95 49.4-2.95 46.55-1.18 43.7 0.6 40.35 0.6L40.35 0.6Q39.25 0.6 38.17 0.53 37.1 0.45 36.7 0.4L36.7 0.4 36.75 5.55Q36.75 7.85 37.22 8.68 37.7 9.5 39.1 9.5L39.1 9.5 40.8 9.45 40.9 9.6 40.5 11.5 35.75 11.5Q33.95 11.5 32.42 11.65 30.9 11.8 30.45 11.85L30.45 11.85ZM41.75-2.15Q45.1-2.15 47.02-4.42 48.95-6.7 48.95-10.65L48.95-10.65Q48.95-13.15 48.07-15.2 47.2-17.25 45.67-18.45 44.15-19.65 42.35-19.65L42.35-19.65Q41.35-19.65 39.9-18.98 38.45-18.3 37.15-17.2L37.15-17.2Q36.75-10.65 36.75-3.1L36.75-3.1Q37.75-2.7 39.12-2.43 40.5-2.15 41.75-2.15L41.75-2.15ZM56.85 11.85L57.1 9.9Q58.2 9.75 58.72 9.45 59.25 9.15 59.45 8.45 59.65 7.75 59.65 6.3L59.65 6.3Q59.65 4.2 59.7 2.7L59.7 2.7 59.75-2 59.75-16.9Q59.75-18.6 59.2-19.28 58.65-19.95 57.3-19.95L57.3-19.95 56.75-19.95 56.6-20.15 56.75-21.8Q58.9-22.15 61.02-22.63 63.15-23.1 63.75-23.25L63.75-23.25 64.05-22.85Q64-22.6 63.82-21.78 63.65-20.95 63.55-20.15L63.55-20.15 63.75-19.8Q68.45-23.05 69.55-23.05L69.55-23.05Q72.4-23.05 74.59-21.73 76.8-20.4 78-18 79.2-15.6 79.2-12.5L79.2-12.5Q79.2-8.95 77.5-5.95 75.8-2.95 72.95-1.18 70.09 0.6 66.75 0.6L66.75 0.6Q65.65 0.6 64.57 0.53 63.5 0.45 63.1 0.4L63.1 0.4 63.15 5.55Q63.15 7.85 63.62 8.68 64.09 9.5 65.5 9.5L65.5 9.5 67.2 9.45 67.3 9.6 66.9 11.5 62.15 11.5Q60.35 11.5 58.82 11.65 57.3 11.8 56.85 11.85L56.85 11.85ZM68.15-2.15Q71.5-2.15 73.42-4.42 75.34-6.7 75.34-10.65L75.34-10.65Q75.34-13.15 74.47-15.2 73.59-17.25 72.07-18.45 70.55-19.65 68.75-19.65L68.75-19.65Q67.75-19.65 66.3-18.98 64.84-18.3 63.55-17.2L63.55-17.2Q63.15-10.65 63.15-3.1L63.15-3.1Q64.15-2.7 65.52-2.43 66.9-2.15 68.15-2.15L68.15-2.15ZM83.94-1.8Q85.44-1.95 85.94-2.78 86.44-3.6 86.44-5.95L86.44-5.95 86.44-16.95Q86.44-18.6 85.99-19.3 85.54-20 84.54-20L84.54-20Q84.14-20 83.87-19.95 83.59-19.9 83.49-19.85L83.49-19.85 83.24-20.2 83.39-21.75Q85.29-22.1 87.42-22.6 89.54-23.1 90.14-23.25L90.14-23.25 90.49-22.95Q90.39-22.5 90.19-20.88 89.99-19.25 90.04-17.8L90.04-17.8 90.24-17.65Q91.74-20 93.77-21.5 95.79-23 97.29-23L97.29-23Q97.99-23 98.37-22.93 98.74-22.85 98.84-22.8L98.84-22.8 98.99-22.6Q98.89-21.9 98.57-19.63 98.24-17.35 98.19-15.45L98.19-15.45 96.24-15.3Q96.24-17.35 95.97-18.03 95.69-18.7 94.89-18.7L94.89-18.7Q93.79-18.7 92.54-17.78 91.29-16.85 90.24-15.3L90.24-15.3Q90.19-13.85 90.04-10.5 89.89-7.15 89.84-5.1L89.84-5.1Q89.84-3.4 90.34-2.8 90.84-2.2 92.24-2.2L92.24-2.2Q92.89-2.2 93.54-2.25 94.19-2.3 94.44-2.3L94.44-2.3 94.49-2.1 94.04 0.1Q93.54 0.1 92.04 0.05 90.54 0 88.94 0L88.94 0Q87.09 0 85.59 0.08 84.09 0.15 83.69 0.2L83.69 0.2 83.94-1.8ZM102.34 0.6L102.54-1.45Q104.04-1.85 104.69-2.63 105.34-3.4 105.34-4.7L105.34-4.7 105.34-17.4Q105.34-20.1 103.49-20.1L103.49-20.1Q103.14-20.1 102.74-20.03 102.34-19.95 102.24-19.9L102.24-19.9 102.44-21.75Q104.54-22.05 106.77-22.55 108.99-23.05 109.64-23.2L109.64-23.2 109.89-22.6Q109.44-21.55 109.09-16.18 108.74-10.8 108.74-4.9L108.74-4.9Q108.74-3.45 109.14-2.78 109.54-2.1 110.49-2.1L110.49-2.1Q111.04-2.1 111.54-2.15 112.04-2.2 112.24-2.2L112.24-2.2 112.34-2 111.94 0.15Q111.49 0.1 110.24 0.05 108.99 0 107.49 0L107.49 0Q106.19 0 104.52 0.25 102.84 0.5 102.34 0.6L102.34 0.6ZM106.74-29.1Q105.59-29.1 104.94-29.85 104.29-30.6 104.29-31.65L104.29-31.65Q104.29-32.85 105.14-33.73 105.99-34.6 107.24-34.6L107.24-34.6Q108.39-34.6 109.04-33.85 109.69-33.1 109.69-32.05L109.69-32.05Q109.69-30.85 108.84-29.98 107.99-29.1 106.74-29.1L106.74-29.1ZM122.79 0.6Q121.19 0.6 119.86 0.38 118.54 0.15 117.79-0.1 117.04-0.35 116.84-0.45L116.84-0.45 116.69-0.8Q116.84-1.55 117.04-3.9 117.24-6.25 117.29-7.5L117.29-7.5 119.04-7.75Q119.04-4.45 120.14-3.1 121.24-1.75 123.89-1.75L123.89-1.75Q125.79-1.75 127.09-2.6 128.39-3.45 128.39-4.7L128.39-4.7Q128.39-5.95 127.21-6.98 126.04-8 122.59-9.85L122.59-9.85Q119.74-11.3 118.44-12.8 117.14-14.3 117.14-16.1L117.14-16.1Q117.14-18.1 118.34-19.73 119.54-21.35 121.64-22.28 123.74-23.2 126.34-23.2L126.34-23.2Q127.54-23.2 128.64-23.03 129.74-22.85 130.44-22.65 131.14-22.45 131.34-22.4L131.34-22.4 131.44-22.15Q131.34-21.65 130.99-19.88 130.64-18.1 130.49-16.05L130.49-16.05 128.64-15.9Q128.64-16.05 128.69-16.5 128.74-16.95 128.74-17.35L128.74-17.35Q128.74-19.15 127.76-19.98 126.79-20.8 124.64-20.8L124.64-20.8Q122.94-20.8 121.76-20 120.59-19.2 120.59-18.05L120.59-18.05Q120.59-16.85 121.61-15.8 122.64-14.75 124.94-13.55L124.94-13.55Q128.99-11.4 130.46-9.93 131.94-8.45 131.94-6.55L131.94-6.55Q131.94-4.65 130.69-3 129.44-1.35 127.31-0.38 125.19 0.6 122.79 0.6L122.79 0.6ZM146.64 0.6Q143.53 0.6 141.14-0.78 138.74-2.15 137.44-4.67 136.14-7.2 136.14-10.45L136.14-10.45Q136.14-13.8 137.66-16.75 139.19-19.7 141.74-21.45 144.28-23.2 147.19-23.2L147.19-23.2Q150.84-23.2 152.74-21.35 154.64-19.5 154.64-15.95L154.64-15.95Q154.64-14.5 154.34-13.5L154.34-13.5 153.69-12.9 139.89-12.9Q139.84-8.05 141.81-5.43 143.78-2.8 147.34-2.8L147.34-2.8Q150.14-2.8 153.44-4.35L153.44-4.35 153.74-4.25 154.29-2.8Q152.49-1.5 150.31-0.45 148.14 0.6 146.64 0.6L146.64 0.6ZM140.09-14.75L149.14-15.2Q149.89-15.3 150.14-15.55 150.39-15.8 150.39-16.55L150.39-16.55Q150.39-18.55 149.31-19.6 148.24-20.65 146.24-20.65L146.24-20.65Q143.89-20.65 142.21-19.05 140.53-17.45 140.09-14.75L140.09-14.75Z" opacity="1" transform="matrix(1,0,0,1,0,0)" fill="white" class="wordmark-text-0"></path></svg></g></svg></g></svg></g></svg></g></svg></g></svg></g><defs><mask></mask></defs></svg><rect width="344.33716140318785" height="75.1561" fill="black" stroke="none" visibility="hidden"></rect></g></mask><linearGradient x1="0.054" x2="0.941" y1="0.5" y2="0.5" id="96e39dc6-89fd-42bd-b920-12904be809d4"><stop stop-color="#8c8c8c" offset="0"></stop><stop stop-color="#e3e4e5" offset="0.498"></stop><stop stop-color="#8c8c8c" offset="1"></stop></linearGradient><rect width="344.33716140318785" height="75.1561" fill="url(#96e39dc6-89fd-42bd-b920-12904be809d4)" mask="url(#25341065-4cdb-442a-8d5a-1ab120ac2b29)" data-fill-palette-color="primary"></rect><mask id="3d46f9b1-75db-497d-ad34-1321a808dbd2"><g id="SvgjsG2531"><svg viewBox="0 0 344.33716140318785 75.1561" height="75.1561" width="344.33716140318785"><g><svg viewBox="0 0 344.33716140318785 75.1561" height="75.1561" width="344.33716140318785"><g><svg viewBox="0 0 344.33716140318785 75.1561" height="75.1561" width="344.33716140318785"><g id="SvgjsG2530"><svg viewBox="0 0 344.33716140318785 75.1561" height="75.1561" width="344.33716140318785" id="SvgjsSvg2529"><g><svg viewBox="0 0 344.33716140318785 75.1561" height="75.1561" width="344.33716140318785"><g><svg><g></g><g></g></svg></g><g><svg><g></g><g><svg></svg></g></svg></g><g id="SvgjsG2528"><svg viewBox="0 0 344.33716140318785 75.1561" height="75.1561" width="344.33716140318785"><g><svg xmlns="http://www.w3.org/2000/svg" xmlns:xlink="http://www.w3.org/1999/xlink" version="1.1" x="0" y="0" viewBox="4.999802624769675 4.999500000000001 90.00069737523032 90.00074359558756" enable-background="new 0 0 100 100" xml:space="preserve" height="75.1561" width="75.15606140318788" class="icon-dxe-0" data-fill-palette-color="accent" id="SvgjsSvg2527"><g fill="white"><path d="M5.316 94.538L9.122 68.845C1.46 52.219 4.479 31.881 18.18 18.18 35.754 0.606 64.246 0.606 81.82 18.18S99.394 64.246 81.82 81.82C67.936 95.704 47.237 98.619 30.492 90.565zM23.799 49.684A5.774 5.774 0 1 0 35.347 49.684 5.774 5.774 0 0 0 23.799 49.684M44.361 49.684A5.774 5.774 0 1 0 55.909 49.684 5.774 5.774 0 0 0 44.36 49.684M64.923 49.684A5.774 5.774 0 1 0 76.471 49.684 5.774 5.774 0 0 0 64.923 49.684" fill="white"></path></g></svg></g><g transform="matrix(1,0,0,1,92.89996140318787,0)"><svg width="251.4372" viewBox="-0.75 -34.6 155.39 46.45" height="75.1561" data-palette-color="url(#96e39dc6-89fd-42bd-b920-12904be809d4)"></svg></g></svg></g></svg></g></svg></g></svg></g></svg></g><defs><mask></mask></defs><mask><g id="SvgjsG2526"><svg viewBox="0 0 344.33716140318785 75.1561" height="75.1561" width="344.33716140318785"><g><svg viewBox="0 0 344.33716140318785 75.1561" height="75.1561" width="344.33716140318785"><g><svg viewBox="0 0 344.33716140318785 75.1561" height="75.1561" width="344.33716140318785"><g id="SvgjsG2525"><svg viewBox="0 0 344.33716140318785 75.1561" height="75.1561" width="344.33716140318785" id="SvgjsSvg2524"><g><svg viewBox="0 0 344.33716140318785 75.1561" height="75.1561" width="344.33716140318785"><g><svg><g></g><g></g></svg></g><g><svg><g></g><g><svg></svg></g></svg></g><g id="SvgjsG2523"><svg viewBox="0 0 344.33716140318785 75.1561" height="75.1561" width="344.33716140318785"><g><svg xmlns="http://www.w3.org/2000/svg" xmlns:xlink="http://www.w3.org/1999/xlink" version="1.1" x="0" y="0" viewBox="4.999802624769675 4.999500000000001 90.00069737523032 90.00074359558756" enable-background="new 0 0 100 100" xml:space="preserve" height="75.1561" width="75.15606140318788" class="icon-dxe-0" data-fill-palette-color="accent" id="SvgjsSvg2522"><g fill="black"><path d="M5.316 94.538L9.122 68.845C1.46 52.219 4.479 31.881 18.18 18.18 35.754 0.606 64.246 0.606 81.82 18.18S99.394 64.246 81.82 81.82C67.936 95.704 47.237 98.619 30.492 90.565zM23.799 49.684A5.774 5.774 0 1 0 35.347 49.684 5.774 5.774 0 0 0 23.799 49.684M44.361 49.684A5.774 5.774 0 1 0 55.909 49.684 5.774 5.774 0 0 0 44.36 49.684M64.923 49.684A5.774 5.774 0 1 0 76.471 49.684 5.774 5.774 0 0 0 64.923 49.684" fill="black"></path></g></svg></g><g transform="matrix(1,0,0,1,92.89996140318787,0)"><svg width="251.4372" viewBox="-0.75 -34.6 155.39 46.45" height="75.1561" data-palette-color="url(#96e39dc6-89fd-42bd-b920-12904be809d4)"><path d="M16.6 0.5L16.45 0.15 16.65-1.8Q19.2-2 20.15-2.4 21.1-2.8 21.1-3.7L21.1-3.7Q21.1-4.7 20.65-6.1L20.65-6.1 19-11.55Q17.8-11.6 13.8-11.6L13.8-11.6Q11.4-11.6 8.35-11.2L8.35-11.2 6.5-6Q6.05-4.65 6.05-4.05L6.05-4.05Q6.05-2.95 6.75-2.48 7.45-2 9.05-2L9.05-2 11.9-2 12-1.8 11.7 0.35Q11.1 0.3 8.95 0.15 6.8 0 4.75 0L4.75 0Q2.9 0 1.33 0.05-0.25 0.1-0.75 0.15L-0.75 0.15-0.35-2.2Q1.05-2.35 1.9-3.18 2.75-4 3.55-6.05L3.55-6.05 13.3-31.6 16.45-32.45 16.85-32.45Q17.15-31.25 18.38-26.9 19.6-22.55 21.38-16.6 23.15-10.65 24.8-5.65L24.8-5.65Q25.4-3.8 26.4-3.05 27.4-2.3 29.6-2.1L29.6-2.1 29.7-1.9 29.35 0.15Q28.75 0.15 27.18 0.08 25.6 0 24.05 0L24.05 0Q21.65 0 19.43 0.2 17.2 0.4 16.6 0.5L16.6 0.5ZM9.25-13.65L13.65-13.65Q15.45-13.65 18.3-13.9L18.3-13.9 14.35-27 14-27 9.25-13.65ZM30.45 11.85L30.7 9.9Q31.8 9.75 32.32 9.45 32.85 9.15 33.05 8.45 33.25 7.75 33.25 6.3L33.25 6.3Q33.25 4.2 33.3 2.7L33.3 2.7 33.35-2 33.35-16.9Q33.35-18.6 32.8-19.28 32.25-19.95 30.9-19.95L30.9-19.95 30.35-19.95 30.2-20.15 30.35-21.8Q32.5-22.15 34.62-22.63 36.75-23.1 37.35-23.25L37.35-23.25 37.65-22.85Q37.6-22.6 37.42-21.78 37.25-20.95 37.15-20.15L37.15-20.15 37.35-19.8Q42.05-23.05 43.15-23.05L43.15-23.05Q46-23.05 48.2-21.73 50.4-20.4 51.6-18 52.8-15.6 52.8-12.5L52.8-12.5Q52.8-8.95 51.1-5.95 49.4-2.95 46.55-1.18 43.7 0.6 40.35 0.6L40.35 0.6Q39.25 0.6 38.17 0.53 37.1 0.45 36.7 0.4L36.7 0.4 36.75 5.55Q36.75 7.85 37.22 8.68 37.7 9.5 39.1 9.5L39.1 9.5 40.8 9.45 40.9 9.6 40.5 11.5 35.75 11.5Q33.95 11.5 32.42 11.65 30.9 11.8 30.45 11.85L30.45 11.85ZM41.75-2.15Q45.1-2.15 47.02-4.42 48.95-6.7 48.95-10.65L48.95-10.65Q48.95-13.15 48.07-15.2 47.2-17.25 45.67-18.45 44.15-19.65 42.35-19.65L42.35-19.65Q41.35-19.65 39.9-18.98 38.45-18.3 37.15-17.2L37.15-17.2Q36.75-10.65 36.75-3.1L36.75-3.1Q37.75-2.7 39.12-2.43 40.5-2.15 41.75-2.15L41.75-2.15ZM56.85 11.85L57.1 9.9Q58.2 9.75 58.72 9.45 59.25 9.15 59.45 8.45 59.65 7.75 59.65 6.3L59.65 6.3Q59.65 4.2 59.7 2.7L59.7 2.7 59.75-2 59.75-16.9Q59.75-18.6 59.2-19.28 58.65-19.95 57.3-19.95L57.3-19.95 56.75-19.95 56.6-20.15 56.75-21.8Q58.9-22.15 61.02-22.63 63.15-23.1 63.75-23.25L63.75-23.25 64.05-22.85Q64-22.6 63.82-21.78 63.65-20.95 63.55-20.15L63.55-20.15 63.75-19.8Q68.45-23.05 69.55-23.05L69.55-23.05Q72.4-23.05 74.59-21.73 76.8-20.4 78-18 79.2-15.6 79.2-12.5L79.2-12.5Q79.2-8.95 77.5-5.95 75.8-2.95 72.95-1.18 70.09 0.6 66.75 0.6L66.75 0.6Q65.65 0.6 64.57 0.53 63.5 0.45 63.1 0.4L63.1 0.4 63.15 5.55Q63.15 7.85 63.62 8.68 64.09 9.5 65.5 9.5L65.5 9.5 67.2 9.45 67.3 9.6 66.9 11.5 62.15 11.5Q60.35 11.5 58.82 11.65 57.3 11.8 56.85 11.85L56.85 11.85ZM68.15-2.15Q71.5-2.15 73.42-4.42 75.34-6.7 75.34-10.65L75.34-10.65Q75.34-13.15 74.47-15.2 73.59-17.25 72.07-18.45 70.55-19.65 68.75-19.65L68.75-19.65Q67.75-19.65 66.3-18.98 64.84-18.3 63.55-17.2L63.55-17.2Q63.15-10.65 63.15-3.1L63.15-3.1Q64.15-2.7 65.52-2.43 66.9-2.15 68.15-2.15L68.15-2.15ZM83.94-1.8Q85.44-1.95 85.94-2.78 86.44-3.6 86.44-5.95L86.44-5.95 86.44-16.95Q86.44-18.6 85.99-19.3 85.54-20 84.54-20L84.54-20Q84.14-20 83.87-19.95 83.59-19.9 83.49-19.85L83.49-19.85 83.24-20.2 83.39-21.75Q85.29-22.1 87.42-22.6 89.54-23.1 90.14-23.25L90.14-23.25 90.49-22.95Q90.39-22.5 90.19-20.88 89.99-19.25 90.04-17.8L90.04-17.8 90.24-17.65Q91.74-20 93.77-21.5 95.79-23 97.29-23L97.29-23Q97.99-23 98.37-22.93 98.74-22.85 98.84-22.8L98.84-22.8 98.99-22.6Q98.89-21.9 98.57-19.63 98.24-17.35 98.19-15.45L98.19-15.45 96.24-15.3Q96.24-17.35 95.97-18.03 95.69-18.7 94.89-18.7L94.89-18.7Q93.79-18.7 92.54-17.78 91.29-16.85 90.24-15.3L90.24-15.3Q90.19-13.85 90.04-10.5 89.89-7.15 89.84-5.1L89.84-5.1Q89.84-3.4 90.34-2.8 90.84-2.2 92.24-2.2L92.24-2.2Q92.89-2.2 93.54-2.25 94.19-2.3 94.44-2.3L94.44-2.3 94.49-2.1 94.04 0.1Q93.54 0.1 92.04 0.05 90.54 0 88.94 0L88.94 0Q87.09 0 85.59 0.08 84.09 0.15 83.69 0.2L83.69 0.2 83.94-1.8ZM102.34 0.6L102.54-1.45Q104.04-1.85 104.69-2.63 105.34-3.4 105.34-4.7L105.34-4.7 105.34-17.4Q105.34-20.1 103.49-20.1L103.49-20.1Q103.14-20.1 102.74-20.03 102.34-19.95 102.24-19.9L102.24-19.9 102.44-21.75Q104.54-22.05 106.77-22.55 108.99-23.05 109.64-23.2L109.64-23.2 109.89-22.6Q109.44-21.55 109.09-16.18 108.74-10.8 108.74-4.9L108.74-4.9Q108.74-3.45 109.14-2.78 109.54-2.1 110.49-2.1L110.49-2.1Q111.04-2.1 111.54-2.15 112.04-2.2 112.24-2.2L112.24-2.2 112.34-2 111.94 0.15Q111.49 0.1 110.24 0.05 108.99 0 107.49 0L107.49 0Q106.19 0 104.52 0.25 102.84 0.5 102.34 0.6L102.34 0.6ZM106.74-29.1Q105.59-29.1 104.94-29.85 104.29-30.6 104.29-31.65L104.29-31.65Q104.29-32.85 105.14-33.73 105.99-34.6 107.24-34.6L107.24-34.6Q108.39-34.6 109.04-33.85 109.69-33.1 109.69-32.05L109.69-32.05Q109.69-30.85 108.84-29.98 107.99-29.1 106.74-29.1L106.74-29.1ZM122.79 0.6Q121.19 0.6 119.86 0.38 118.54 0.15 117.79-0.1 117.04-0.35 116.84-0.45L116.84-0.45 116.69-0.8Q116.84-1.55 117.04-3.9 117.24-6.25 117.29-7.5L117.29-7.5 119.04-7.75Q119.04-4.45 120.14-3.1 121.24-1.75 123.89-1.75L123.89-1.75Q125.79-1.75 127.09-2.6 128.39-3.45 128.39-4.7L128.39-4.7Q128.39-5.95 127.21-6.98 126.04-8 122.59-9.85L122.59-9.85Q119.74-11.3 118.44-12.8 117.14-14.3 117.14-16.1L117.14-16.1Q117.14-18.1 118.34-19.73 119.54-21.35 121.64-22.28 123.74-23.2 126.34-23.2L126.34-23.2Q127.54-23.2 128.64-23.03 129.74-22.85 130.44-22.65 131.14-22.45 131.34-22.4L131.34-22.4 131.44-22.15Q131.34-21.65 130.99-19.88 130.64-18.1 130.49-16.05L130.49-16.05 128.64-15.9Q128.64-16.05 128.69-16.5 128.74-16.95 128.74-17.35L128.74-17.35Q128.74-19.15 127.76-19.98 126.79-20.8 124.64-20.8L124.64-20.8Q122.94-20.8 121.76-20 120.59-19.2 120.59-18.05L120.59-18.05Q120.59-16.85 121.61-15.8 122.64-14.75 124.94-13.55L124.94-13.55Q128.99-11.4 130.46-9.93 131.94-8.45 131.94-6.55L131.94-6.55Q131.94-4.65 130.69-3 129.44-1.35 127.31-0.38 125.19 0.6 122.79 0.6L122.79 0.6ZM146.64 0.6Q143.53 0.6 141.14-0.78 138.74-2.15 137.44-4.67 136.14-7.2 136.14-10.45L136.14-10.45Q136.14-13.8 137.66-16.75 139.19-19.7 141.74-21.45 144.28-23.2 147.19-23.2L147.19-23.2Q150.84-23.2 152.74-21.35 154.64-19.5 154.64-15.95L154.64-15.95Q154.64-14.5 154.34-13.5L154.34-13.5 153.69-12.9 139.89-12.9Q139.84-8.05 141.81-5.43 143.78-2.8 147.34-2.8L147.34-2.8Q150.14-2.8 153.44-4.35L153.44-4.35 153.74-4.25 154.29-2.8Q152.49-1.5 150.31-0.45 148.14 0.6 146.64 0.6L146.64 0.6ZM140.09-14.75L149.14-15.2Q149.89-15.3 150.14-15.55 150.39-15.8 150.39-16.55L150.39-16.55Q150.39-18.55 149.31-19.6 148.24-20.65 146.24-20.65L146.24-20.65Q143.89-20.65 142.21-19.05 140.53-17.45 140.09-14.75L140.09-14.75Z" opacity="1" transform="matrix(1,0,0,1,0,0)" fill="black" class="wordmark-text-0"></path></svg></g></svg></g></svg></g></svg></g></svg></g></svg></g><defs><mask></mask></defs></svg><rect width="344.33716140318785" height="75.1561" fill="black" stroke="none" visibility="hidden"></rect></g></mask></svg><rect width="344.33716140318785" height="75.1561" fill="black" stroke="none" visibility="hidden"></rect></g></mask><linearGradient x1="0.054" x2="0.941" y1="0.5" y2="0.5" id="bf993160-5c39-4980-9a73-6d3888609174"><stop stop-color="#9c7945" offset="0"></stop><stop stop-color="#faf3aa" offset="0.498"></stop><stop stop-color="#9c7945" offset="1"></stop></linearGradient><rect width="344.33716140318785" height="75.1561" fill="url(#bf993160-5c39-4980-9a73-6d3888609174)" mask="url(#3d46f9b1-75db-497d-ad34-1321a808dbd2)" data-fill-palette-color="accent"></rect></svg><rect width="344.33716140318785" height="75.1561" fill="none" stroke="none" visibility="hidden"></rect></g></svg></g></svg>